<svg width="250" height="250" viewBox="0 0 250 250"  xmlns="http://www.w3.org/2000/svg">
<path d="M125.623 4.34009C121.753 4.34009 117.884 5.28109 114.436 7.16409L23.256 56.7401C16.278 60.5251 11.943 67.6251 11.943 75.2371V174.389C11.943 182 16.278 189.099 23.256 192.884L114.436 242.461C117.883 244.343 121.753 245.284 125.623 245.284C129.493 245.284 133.362 244.343 136.809 242.461L227.991 192.905C234.969 189.098 239.303 182 239.303 174.388V75.2361C239.303 67.6251 234.968 60.5251 227.991 56.7391L136.809 7.16409C133.362 5.28109 129.493 4.34009 125.623 4.34009ZM125.623 61.9571C146.092 61.9571 165.018 71.1441 177.282 86.7761L153.556 100.075C146.43 92.5251 136.301 88.1461 125.622 88.1461C104.73 88.1461 87.729 104.596 87.729 124.812C87.729 145.027 104.73 161.477 125.622 161.477C136.301 161.477 146.43 157.099 153.556 149.548L177.282 162.848C165.017 178.48 146.092 187.666 125.623 187.666C89.802 187.666 60.664 159.472 60.664 124.812C60.664 90.1521 89.802 61.9571 125.623 61.9571ZM179.756 98.6221H190.583V109.098H201.409V98.6221H212.236V109.098H223.063V119.574H212.236V130.05H223.063V140.526H212.236V151.002H201.409V140.526H190.583V151.002H179.756V140.526H168.929V130.05H179.756V119.574H168.929V109.098H179.756V98.6221ZM190.583 119.574V130.05H201.409V119.574H190.583V119.574Z" fill="#fff"/>
</svg>
