<svg width="24" height="24" xmlns="http://www.w3.org/2000/svg">

 <g>
  <title>Layer 1</title>
  <path fill="#fff" id="svg_1" d="m19.844,-0.2545l-0.1737,0.90553c-0.26865,1.71611 -0.17138,2.20708 0.56509,2.84397l0.71099,0.58825l-0.73647,3.28399c-0.44003,1.95928 -0.97964,3.60128 -1.3224,4.14089c-0.29412,0.4655 -0.63688,1.15102 -0.71099,1.51925c-0.12274,0.44003 -0.53961,0.88237 -1.17649,1.27376c-0.56277,0.3196 -1.66747,1.17649 -2.45026,1.86433c-0.6253,0.56277 -1.05607,0.90785 -1.28997,1.05607l-0.76426,0.60446c-0.24549,0.39371 -0.38444,0.71099 -0.43771,0.95185c-0.05327,0.2478 -0.02316,0.41224 0.05558,0.53266c0.07643,0.1158 0.20843,0.19685 0.38908,0.2478a2.2094,2.2094 0 0 0 0.65309,0.05327a6.9478,6.9478 0 0 0 1.46367,-0.25938c0.16212,-0.044 0.28949,-0.08569 0.40066,-0.12274c0.17138,-0.21075 0.5674,-0.60909 1.26913,-1.30155c1.86201,-1.83654 2.573,-2.84165 1.83885,-2.57069c-0.27096,0.09727 -0.14822,-0.14822 0.31728,-0.6392c0.98196,-0.95648 1.54473,-2.40162 2.72122,-6.9339c0.93101,-3.57812 0.93101,-3.62907 1.61652,-3.62907c0.32191,0 1.23208,0.05558 1.23208,0.05558l0,-4.46512l-2.08897,0l-2.08202,0zm-8.24936,7.65416c-0.67625,-0.00463 -2.13066,1.02596 -6.48461,4.58092c-0.18759,0.44698 -0.2038,0.75499 -0.11811,0.95416c0.05558,0.13664 0.15748,0.23159 0.29876,0.30107c0.13896,0.06948 0.3196,0.11116 0.51877,0.12738c0.39602,0.03474 0.86384,-0.02779 1.24134,-0.1019l0.25475,-0.0579a0.89395,0.89395 0 0 1 0.33349,-0.27328c0.26865,-0.14822 1.39651,-1.17649 2.52437,-2.27888c1.98476,-2.01023 2.45026,-2.91808 1.642,-3.2122a0.55582,0.55582 0 0 0 -0.20843,-0.03937l-0.00232,0zm5.08579,1.39651c-0.59519,0.01621 -1.66747,0.70636 -3.50401,2.17235c-0.92174,0.74805 -1.50536,1.15102 -1.81801,1.23439l-1.21355,0.9588c-0.45624,0.83374 -0.5234,1.35019 -0.40297,1.63505a0.57898,0.57898 0 0 0 0.3196,0.31034a1.49146,1.49146 0 0 0 0.55582,0.10422a5.04874,5.04874 0 0 0 1.34324,-0.19685a8.02703,8.02703 0 0 0 0.67394,-0.21307l0.06716,-0.02779l0.12274,-0.06485c0.23159,-0.29876 0.76426,-0.86153 1.43125,-1.50999c2.1075,-2.03339 3.18441,-3.47853 2.96439,-4.01814c-0.09959,-0.2617 -0.27096,-0.39371 -0.53961,-0.38444zm-5.61382,2.50121c-0.17138,0.01853 -0.55582,0.31497 -1.24829,0.92174c-1.00048,0.88469 -2.09129,1.39419 -2.46879,1.16723a9.19426,9.19426 0 0 1 -0.26402,0.05558c-0.38444,0.07643 -0.86384,0.13896 -1.29229,0.10422a1.63968,1.63968 0 0 1 -0.58362,-0.1459a0.78047,0.78047 0 0 1 -0.38908,-0.39371c-0.08569,-0.20843 -0.08569,-0.46782 0.01158,-0.799l-1.50536,1.23671l-3.40674,2.81849l0,4.56934l11.1628,-8.7936a0.94953,0.94953 0 0 1 0.03705,-0.28486c0.08569,-0.31034 0.08106,-0.46782 -0.05327,-0.45392l0,-0.00232zm4.80325,1.47988c-0.16906,0 -0.45161,0.23854 -0.90321,0.71794c-0.61372,0.65541 -1.57947,1.28997 -2.09129,1.41967l-0.07874,0.04169a5.07421,5.07421 0 0 1 -0.25475,0.09727c-0.13896,0.04632 -0.3196,0.1019 -0.52803,0.15748c-0.41687,0.11348 -0.93564,0.2177 -1.39882,0.20612a1.69526,1.69526 0 0 1 -0.63688,-0.12506a0.79668,0.79668 0 0 1 -0.42613,-0.41687c-0.13432,-0.32191 -0.08106,-0.77352 0.21307,-1.41504l-9.84735,7.75606l0,2.7907l4.32616,0l9.17573,-7.20719c0.23854,-0.26402 0.59751,-0.6253 1.08154,-1.07691c1.29692,-1.20197 1.59105,-1.61652 1.59105,-2.23024c0,-0.47708 -0.05327,-0.71794 -0.22233,-0.71794l0,0.00232zm2.18393,4.51607l-0.7851,0.78279c-0.44003,0.41687 -1.22513,0.93101 -1.76243,1.15102l-0.10653,0.04632l-0.00695,0.01158l-0.02316,0.02316c-0.02084,0.01621 -0.03011,0.01853 -0.04632,0.02548a7.94828,7.94828 0 0 1 -0.65309,0.21538a7.08212,7.08212 0 0 1 -1.50536,0.26633a2.39699,2.39699 0 0 1 -0.71794,-0.06253a0.843,0.843 0 0 1 -0.50487,-0.33349c-0.11116,-0.17138 -0.14359,-0.40066 -0.08106,-0.6832a2.57069,2.57069 0 0 1 0.22001,-0.57898l-7.40404,5.85005l9.84735,0l1.17649,-1.34787c1.61652,-1.88517 2.35299,-3.23304 2.35299,-4.38638l0,-0.97964z"/>
 </g>
</svg>