<?xml version="1.0" standalone="no"?>
<!DOCTYPE svg PUBLIC "-//W3C//DTD SVG 20010904//EN"
 "http://www.w3.org/TR/2001/REC-SVG-20010904/DTD/svg10.dtd">
<svg version="1.0" xmlns="http://www.w3.org/2000/svg"
 width="895.000000pt" height="895.000000pt" viewBox="0 0 895.000000 895.000000"
 preserveAspectRatio="xMidYMid meet">
<metadata>
Created by potrace 1.14, written by Peter Selinger 2001-2017
</metadata>
<g transform="translate(0.000000,895.000000) scale(0.100000,-0.100000)"
fill="#000000" stroke="none">
<path d="M400 8939 c-19 -4 -29 -7 -22 -8 6 0 12 -8 12 -16 0 -8 5 -15 10 -15
6 0 10 -7 10 -15 0 -8 5 -15 10 -15 6 0 10 -5 10 -11 0 -5 18 -37 40 -69 22
-32 40 -64 40 -69 0 -6 5 -11 10 -11 6 0 10 -7 10 -15 0 -8 5 -15 10 -15 6 0
10 -6 10 -13 0 -7 9 -23 20 -35 11 -12 20 -24 20 -28 0 -4 16 -29 35 -55 19
-27 35 -53 35 -58 0 -4 15 -28 33 -52 18 -24 41 -61 52 -81 11 -21 22 -38 26
-38 4 0 12 -13 19 -30 7 -16 17 -30 22 -30 5 0 6 -4 3 -10 -3 -5 -1 -10 4 -10
6 0 11 -7 11 -15 0 -8 5 -15 10 -15 6 0 10 -7 10 -15 0 -8 5 -15 11 -15 5 0 8
-4 5 -9 -3 -5 1 -11 9 -15 8 -3 15 -12 15 -20 0 -8 6 -21 13 -28 18 -20 67
-96 67 -106 0 -5 9 -17 20 -27 11 -10 20 -24 20 -32 0 -7 5 -13 10 -13 6 0 10
-7 10 -15 0 -8 4 -15 10 -15 5 0 12 -11 16 -25 3 -14 10 -25 16 -25 5 0 6 -5
3 -10 -3 -6 0 -13 8 -16 8 -3 23 -23 33 -44 11 -22 22 -40 25 -40 4 0 12 -13
19 -30 7 -16 16 -30 21 -30 5 0 9 -5 9 -10 0 -11 67 -116 88 -138 6 -7 12 -20
12 -28 0 -8 5 -14 10 -14 6 0 10 -4 10 -10 0 -5 8 -19 18 -30 9 -11 17 -24 17
-28 0 -4 14 -27 31 -52 17 -25 33 -53 37 -62 6 -17 187 -18 3544 -20 1946 -2
3555 -2 3576 0 45 4 47 19 9 79 -79 123 -140 218 -163 256 -15 23 -76 121
-137 217 -107 168 -180 285 -212 336 -43 68 -155 245 -242 379 -35 55 -101
159 -146 232 -46 72 -89 137 -97 143 -12 10 -787 13 -3562 14 -1952 0 -3564
-2 -3583 -5z"/>
<path d="M370 5644 c0 -16 25 -58 135 -229 118 -184 588 -921 600 -942 6 -10
26 -43 46 -73 20 -30 79 -122 131 -205 234 -369 433 -684 463 -730 18 -27 92
-144 165 -260 135 -213 204 -322 245 -385 12 -19 49 -78 82 -130 33 -52 96
-151 140 -220 44 -69 82 -129 84 -135 2 -5 29 -48 60 -95 102 -156 189 -291
189 -295 0 -2 17 -30 38 -62 41 -62 77 -119 159 -248 95 -151 168 -266 208
-329 72 -112 120 -188 255 -401 73 -116 142 -226 155 -245 25 -39 78 -121 185
-290 40 -63 97 -152 126 -197 30 -46 54 -85 54 -89 0 -12 53 -74 64 -74 6 0
23 21 39 48 15 26 55 90 89 142 73 112 148 231 328 515 73 116 153 242 178
280 25 39 51 79 57 90 6 11 37 61 69 110 33 50 76 117 96 150 21 33 74 118
119 189 l81 128 -27 47 c-15 25 -46 73 -68 106 -23 33 -65 98 -93 145 -29 47
-91 144 -138 215 -46 72 -87 137 -91 145 -4 8 -42 68 -85 133 -43 65 -78 120
-78 122 0 3 -13 24 -29 47 -16 24 -54 81 -83 128 -30 47 -81 127 -114 177 -32
51 -66 104 -74 118 -8 14 -46 74 -84 133 -98 151 -123 190 -213 332 -44 69
-128 201 -187 293 -59 93 -110 175 -112 182 -3 7 3 16 13 18 10 3 677 5 1483
5 1420 0 1465 0 1478 18 16 22 180 275 233 361 68 107 251 397 284 448 29 46
192 302 368 580 38 61 85 133 103 162 19 28 34 59 34 67 0 15 -323 16 -3580
16 -3313 0 -3580 -1 -3580 -16z"/>
</g>
</svg>
